# Blender 4.0.2
# www.blender.org
mtllib racingcollision.mtl
o Plane
v -68.973595 -9.599110 55.800114
v -69.041946 -9.599093 2.728042
v -2.382629 -9.599107 57.280548
v -12.115771 -9.599104 -60.931190
v -70.711571 -11.169071 22.235708
v 20.099728 -9.599107 56.461147
v -34.186634 -9.599102 57.956108
v -14.067265 6.912653 27.526539
v -41.733006 0.643909 -32.101154
v 48.896088 -9.599115 56.452763
v -53.804909 -9.599104 -60.911198
v -69.678734 -9.599099 -13.549816
v -21.894070 -9.599108 57.732384
v -9.647082 -6.983136 -45.864937
v -12.855162 5.189291 9.943577
v -69.518860 -9.599099 9.150221
v -15.311257 20.569174 -12.780987
v 30.264866 -8.505931 -11.857002
v 0.946329 9.678848 27.090832
v 29.459694 -7.800787 27.430948
v -53.558376 12.942680 38.029400
v -51.778107 12.648186 21.135893
v -34.547371 -3.600643 -45.545483
v -39.719131 10.866470 -16.655212
v 19.772480 -8.194798 -46.339542
v 29.017315 -8.582116 -23.540171
v -23.217625 17.546440 -14.146254
v 0.543893 10.854877 43.401356
v -0.917248 -0.913053 13.113094
v -24.269051 14.746393 10.789030
v -69.756973 -9.599102 47.426334
v -10.881353 -8.268232 -53.447681
v 11.365844 -9.599104 56.565666
v -69.925964 -9.599095 -28.203848
v -46.763531 -9.599107 57.374290
v -14.290982 18.889189 -19.986507
v -27.788708 15.548954 0.031845
v 26.346691 -6.759498 -3.047760
v 20.935833 -5.437984 4.888583
v 19.822041 -5.270530 34.277416
v -46.009590 5.757353 -26.670895
v -62.501881 5.477238 -31.728155
v -32.386478 -4.068900 -37.703259
v 14.387198 -9.356795 -57.031322
v -70.576782 -9.599102 38.580524
v 48.978809 -9.599098 18.287004
v -68.755836 -9.599109 -50.491684
v -60.746193 -9.599107 55.951817
v -20.179419 17.029882 0.735304
v 39.015125 -9.478290 -9.126010
v 19.843868 -6.609268 19.829121
v 12.934678 -4.291271 23.743429
v -37.184853 14.245659 12.619061
v -53.431000 5.821795 -30.390753
v 24.022472 -8.333000 -43.993721
v 15.712459 13.162357 -26.183187
v 13.496594 14.804153 -12.923588
v -1.324431 -8.455496 -55.717045
v 6.718087 13.188053 -35.159260
v -0.622396 -7.326463 -46.891529
v 8.393485 -7.754928 -47.089176
v -23.086802 13.813749 -29.279644
v -63.105534 2.196133 -9.314585
v -61.497169 8.905216 -47.784019
v -59.361214 10.559492 44.387955
v 23.958626 -5.734162 45.798344
v 40.478542 -9.685616 48.945938
v 3.565226 -2.226079 21.998133
v 10.809600 -4.107653 10.698088
v 39.689075 -4.971739 18.501720
v -32.466896 8.699341 14.693541
v 28.788292 -9.296381 -53.375576
v 27.748577 -8.805279 -36.941772
v -20.462664 7.159630 18.531580
v 27.868656 -7.781508 12.429749
v -10.302953 3.202527 18.939352
v -5.614777 18.905220 -6.081750
v -6.074883 10.140034 34.859432
v -39.922436 13.408129 6.030681
v -61.043926 3.989190 6.905694
v -22.522734 10.502237 45.036716
v -46.763630 12.934244 33.443279
v -46.620770 2.057550 -38.947075
v -21.619448 18.518219 -7.111341
v -31.282528 15.248917 -6.005378
v -35.141483 10.465212 -21.749735
v -6.708272 14.297556 -35.108879
v 35.901802 -9.396937 -40.197289
v -53.977440 7.545670 -23.558201
v -17.629595 10.118013 37.145508
v -46.266533 13.066568 24.430735
v 41.733673 -4.194783 32.414948
v 6.121363 9.660900 35.629776
v 35.703400 -7.903197 3.030865
v 48.893303 -9.599115 4.012479
v 48.901096 -9.599098 38.074581
v -68.486671 -9.599113 -60.924381
v 0.512030 -9.599107 -60.901009
v -35.727867 -9.599107 -60.867092
v -61.158604 -9.599107 -60.928093
v 48.895763 -9.684892 -60.870747
v -15.049595 14.275444 -33.394699
v 48.894535 -9.642003 -33.492336
vn 0.1337 0.9868 -0.0914
vn 0.4299 0.6803 0.5936
vn 0.6658 0.6449 -0.3753
vn -0.0687 0.9386 -0.3382
vn 0.4172 0.8349 -0.3590
vn 0.1253 0.9643 -0.2333
vn -0.0685 0.9445 -0.3211
vn 0.1071 0.9887 -0.1045
vn 0.0035 0.4792 -0.8777
vn 0.0762 0.4981 -0.8638
vn -0.5429 0.5720 -0.6149
vn -0.0422 0.9536 0.2980
vn -0.3469 0.9293 0.1267
vn 0.1267 0.9542 -0.2711
vn -0.4085 0.9115 -0.0488
vn 0.0407 0.9989 -0.0225
vn 0.3739 0.9260 -0.0518
vn 0.2998 0.9534 -0.0354
vn 0.0843 0.9948 0.0574
vn -0.2015 0.9697 0.1383
vn -0.2526 0.4410 -0.8612
vn 0.0621 0.9977 -0.0259
vn 0.0693 0.9953 -0.0670
vn 0.7379 0.5763 -0.3513
vn 0.8544 0.5119 -0.0894
vn 0.0266 0.9923 -0.1212
vn -0.4046 0.5534 -0.7281
vn 0.3845 0.9192 -0.0847
vn 0.2687 0.2383 0.9333
vn 0.6491 0.6798 0.3414
vn -0.0268 0.9962 0.0831
vn -0.2770 0.9608 -0.0129
vn 0.6637 0.7351 -0.1386
vn 0.1924 0.9772 -0.0902
vn 0.7062 0.5959 0.3823
vn 0.2270 0.9695 0.0926
vn 0.2081 0.9773 0.0395
vn 0.2557 0.4272 -0.8672
vn -0.1742 0.8739 -0.4539
vn 0.0431 0.5567 0.8296
vn -0.0201 0.9975 -0.0679
vn -0.0103 0.9999 -0.0000
vn 0.1452 0.9122 0.3832
vn -0.1880 0.9811 -0.0466
vn -0.8767 0.4806 -0.0222
vn -0.5775 0.8082 -0.1157
vn -0.8515 0.5206 -0.0632
vn -0.0145 0.4983 0.8669
vn -0.0384 0.5560 0.8303
vn -0.8807 0.4665 0.0816
vn -0.0000 1.0000 -0.0000
vn -0.8682 0.4946 -0.0404
vn 0.0516 0.5344 0.8436
vn 0.0589 0.9946 0.0855
vn 0.3920 0.9155 -0.0908
vn -0.9274 0.3709 -0.0487
vn -0.0672 0.9766 0.2043
vn -0.2978 0.9407 0.1625
vn -0.3749 0.9209 -0.1065
vn -0.3481 0.9313 -0.1075
vn -0.8782 0.4771 0.0344
vn -0.8757 0.4827 0.0148
vn -0.3491 0.9357 -0.0499
vn -0.0361 0.9806 0.1926
vn -0.3610 0.9276 -0.0958
vn -0.3045 0.9437 0.1293
vn -0.0036 0.7266 -0.6871
vn -0.2590 0.9165 -0.3049
vn -0.0832 0.4587 -0.8847
vn 0.0004 0.9845 -0.1752
vn -0.0196 0.9863 -0.1640
vn 0.1912 0.9617 -0.1961
vn 0.1914 0.9615 -0.1971
vn 0.1162 0.9930 -0.0189
vn 0.7840 0.5747 0.2348
vn 0.8464 0.5271 0.0762
vn 0.0101 0.9999 0.0016
vn 0.0392 0.9786 -0.2020
vn 0.0458 0.9902 -0.1319
vn 0.0179 0.8861 -0.4632
vn -0.0615 0.9978 -0.0239
vn 0.0116 0.9998 0.0153
vn -0.2128 0.9619 -0.1719
vn 0.3992 0.8606 0.3162
vn 0.5394 0.7995 0.2643
vn 0.3218 0.6970 0.6408
vn 0.4239 0.8636 -0.2728
vn -0.0010 0.9312 -0.3645
vn 0.0184 0.9998 -0.0023
vn -0.1543 0.9872 0.0402
vn 0.2752 0.7986 -0.5353
vn 0.8104 0.5788 -0.0903
vn 0.0378 0.4969 -0.8670
vn 0.4000 0.6044 -0.6890
vn -0.3258 0.9438 -0.0564
vn -0.0008 0.9696 -0.2447
vn 0.0019 0.5791 -0.8152
vn -0.4362 0.8977 -0.0616
vn -0.4014 0.8749 -0.2710
vn 0.1900 0.9757 -0.1089
vn 0.3574 0.9282 0.1036
vn -0.1796 0.4634 -0.8678
vn 0.1615 0.9867 -0.0193
vn 0.0634 0.9977 -0.0226
vn 0.0053 0.9993 -0.0375
vn 0.1546 0.9840 -0.0888
vn 0.1523 0.9850 -0.0813
vn 0.3611 0.9032 -0.2319
vn 0.1104 0.4292 0.8964
vn 0.1632 0.9818 -0.0973
vn 0.4459 0.8951 0.0018
vn 0.1329 0.9910 -0.0128
vn -0.2444 0.9693 0.0272
vn 0.2855 0.9577 0.0352
vn -0.1580 0.9768 -0.1444
vn 0.2573 0.9659 -0.0283
vn 0.2715 0.9584 -0.0884
vn 0.4384 0.8958 0.0735
vn 0.3524 0.4325 -0.8299
vn 0.1790 0.7060 0.6852
vn 0.3806 0.6344 0.6728
vn 0.0041 0.9397 0.3421
vn -0.1829 0.9577 -0.2222
vn 0.0465 0.9918 -0.1190
vn -0.0000 0.9999 -0.0115
vn 0.2258 0.9733 -0.0419
vn -0.0719 0.9974 -0.0063
vn -0.1184 0.9929 0.0080
vn -0.8512 0.5221 -0.0533
vn -0.8679 0.4937 0.0557
vn -0.0047 0.9378 0.3472
vn -0.0816 0.5910 0.8025
vn -0.6235 0.4208 0.6589
vn 0.0192 0.5595 0.8286
vn 0.0154 0.5343 0.8452
vn 0.0949 0.9954 0.0104
vn 0.4214 0.9069 -0.0066
vn 0.4396 0.8971 -0.0448
vn -0.8927 0.4489 0.0400
vn -0.7498 0.3740 -0.5458
vn -0.8924 0.4492 0.0417
vn -0.2059 0.9538 0.2187
vn -0.0343 0.7358 -0.6763
vn -0.3066 0.8870 -0.3453
vn 0.5368 0.6516 -0.5360
vn -0.0348 0.9733 -0.2271
vn 0.0231 0.9914 -0.1287
vn 0.0442 0.9905 -0.1302
vn 0.1959 0.9798 -0.0402
vn 0.0816 0.9919 -0.0970
vn 0.0999 0.9950 -0.0074
vn 0.0018 0.9976 -0.0690
vn 0.0469 0.9902 -0.1313
vn -0.2107 0.9280 -0.3074
vn -0.3061 0.9167 -0.2571
vn 0.0020 0.5792 -0.8152
vn -0.0131 0.9983 -0.0567
vn -0.1945 0.9799 -0.0437
vn 0.1617 0.9328 0.3221
vn 0.6495 0.6514 -0.3923
vn 0.7073 0.6695 -0.2270
vn 0.3683 0.7049 0.6062
vn 0.1803 0.9795 0.0900
vn 0.1378 0.9863 -0.0903
vn 0.1276 0.9918 -0.0008
vn -0.0271 0.9771 0.2109
vn 0.4982 0.5346 0.6826
vn 0.1271 0.9727 -0.1940
vn 0.1950 0.9808 0.0048
vn 0.0625 0.9823 -0.1766
vn -0.3343 0.8914 -0.3060
vn -0.3576 0.9194 -0.1637
vn 0.4197 0.9056 -0.0616
vn 0.0197 0.9998 -0.0016
vn 0.0194 0.9998 -0.0011
s 0
usemtl grass.001
f 95//1 50//1 94//1
f 78//4 8//4 90//4
f 36//7 87//7 102//7
f 56//8 59//8 57//8
f 77//12 17//12 84//12
f 89//13 42//13 63//13
f 90//14 8//14 82//14
f 80//15 79//15 63//15
f 30//20 49//20 37//20
f 82//30 71//30 53//30
f 53//31 30//31 37//31
f 92//32 70//32 20//32
f 96//33 70//33 92//33
f 20//34 51//34 40//34
f 10//42 96//42 67//42
f 6//43 67//43 66//43
f 22//46 80//46 65//46
f 48//51 31//51 1//51
f 54//57 64//57 42//57
f 47//51 100//51 97//51
f 63//58 24//58 89//58
f 79//59 24//59 63//59
f 79//60 85//60 24//60
f 49//64 77//64 84//64
f 85//65 27//65 24//65
f 32//70 98//70 4//70
f 57//72 87//72 36//72
f 57//73 36//73 17//73
f 95//77 88//77 50//77
f 44//78 98//78 58//78
f 92//83 20//83 66//83
f 67//84 96//84 92//84
f 46//87 94//87 70//87
f 23//88 4//88 99//88
f 88//89 101//89 72//89
f 89//96 54//96 42//96
f 65//98 21//98 22//98
f 80//99 22//99 79//99
f 44//105 72//105 101//105
f 71//106 74//106 15//106
f 8//107 74//107 71//107
f 82//110 8//110 71//110
f 96//111 46//111 70//111
f 20//112 75//112 51//112
f 20//113 70//113 75//113
f 70//115 94//115 75//115
f 40//117 51//117 52//117
f 33//122 6//122 66//122
f 6//125 10//125 67//125
f 66//126 20//126 40//126
f 91//128 82//128 53//128
f 65//131 81//131 21//131
f 83//137 23//137 64//137
f 54//138 83//138 64//138
f 37//142 49//142 84//142
f 32//146 58//146 98//146
f 77//149 57//149 17//149
f 57//150 59//150 87//150
f 44//152 101//152 98//152
f 62//154 36//154 102//154
f 67//159 92//159 66//159
f 46//165 95//165 94//165
f 30//166 77//166 49//166
f 23//168 32//168 4//168
f 62//172 86//172 36//172
f 88//174 103//174 101//174
f 88//175 95//175 103//175
usemtl road.001
f 41//6 54//6 89//6
f 93//16 19//16 78//16
f 68//17 29//17 76//17
f 51//18 69//18 52//18
f 94//19 38//19 75//19
f 88//22 72//22 73//22
f 55//23 72//23 25//23
f 72//26 44//26 25//26
f 9//28 23//28 83//28
f 51//36 75//36 39//36
f 52//37 29//37 68//37
f 19//39 76//39 8//39
f 28//41 78//41 81//41
f 91//44 53//44 79//44
f 81//54 82//54 21//54
f 9//55 83//55 54//55
f 84//63 17//63 27//63
f 37//66 84//66 85//66
f 24//68 86//68 41//68
f 14//71 58//71 32//71
f 50//74 26//74 18//74
f 61//79 44//79 58//79
f 24//80 41//80 89//80
f 21//81 91//81 22//81
f 21//82 82//82 91//82
f 79//90 37//90 85//90
f 41//91 9//91 54//91
f 85//95 84//95 27//95
f 94//100 18//100 38//100
f 74//101 76//101 15//101
f 55//103 73//103 72//103
f 26//104 88//104 73//104
f 8//108 76//108 74//108
f 39//114 75//114 38//114
f 52//116 69//116 29//116
f 76//118 29//118 15//118
f 78//123 19//123 8//123
f 28//124 93//124 78//124
f 91//127 79//127 22//127
f 81//136 90//136 82//136
f 24//144 27//144 86//144
f 14//147 60//147 58//147
f 60//148 61//148 58//148
f 50//151 88//151 26//151
f 61//153 25//153 44//153
f 27//155 17//155 36//155
f 81//157 78//157 90//157
f 79//158 53//158 37//158
f 51//163 39//163 69//163
f 94//164 50//164 18//164
f 23//169 43//169 32//169
f 43//170 14//170 32//170
f 27//171 36//171 86//171
f 9//173 43//173 23//173
usemtl hill.001
f 39//2 57//2 69//2
f 40//3 52//3 93//3
f 23//5 99//5 64//5
f 87//9 61//9 60//9
f 59//10 25//10 61//10
f 86//11 62//11 43//11
f 102//21 14//21 43//21
f 56//24 73//24 55//24
f 26//25 73//25 56//25
f 62//27 102//27 43//27
f 71//29 15//29 30//29
f 39//35 38//35 57//35
f 52//38 68//38 19//38
f 3//40 33//40 28//40
f 65//45 16//45 5//45
f 80//47 2//47 16//47
f 48//48 81//48 65//48
f 7//49 81//49 35//49
f 65//50 45//50 31//50
f 65//52 5//52 45//52
f 13//53 28//53 81//53
f 64//56 47//56 34//56
f 2//61 63//61 12//61
f 12//62 63//62 34//62
f 86//67 9//67 41//67
f 87//69 60//69 14//69
f 38//75 18//75 57//75
f 26//76 56//76 57//76
f 66//85 93//85 28//85
f 29//86 69//86 77//86
f 18//92 26//92 57//92
f 87//93 59//93 61//93
f 59//94 55//94 25//94
f 64//97 11//97 100//97
f 102//102 87//102 14//102
f 53//109 71//109 30//109
f 19//119 68//119 76//119
f 15//120 29//120 77//120
f 28//121 33//121 66//121
f 65//129 80//129 16//129
f 2//130 80//130 63//130
f 48//132 35//132 81//132
f 48//133 65//133 31//133
f 13//134 3//134 28//134
f 7//135 13//135 81//135
f 42//139 64//139 34//139
f 47//140 64//140 100//140
f 63//141 42//141 34//141
f 86//143 43//143 9//143
f 56//145 55//145 59//145
f 64//156 99//156 11//156
f 93//160 52//160 19//160
f 66//161 40//161 93//161
f 77//162 69//162 57//162
f 30//167 15//167 77//167
